<svg width="84" height="96" viewBox="0 0 84 96" fill="none" xmlns="http://www.w3.org/2000/svg">
  <path
    d="M61.25 26.125V20.875C61.25 20.3938 60.8563 20 60.375 20H18.375C17.8937 20 17.5 20.3938 17.5 20.875V26.125C17.5 26.6063 17.8937 27 18.375 27H60.375C60.8563 27 61.25 26.6063 61.25 26.125ZM18.375 35.75C17.8937 35.75 17.5 36.1438 17.5 36.625V41.875C17.5 42.3563 17.8937 42.75 18.375 42.75H38.5C38.9813 42.75 39.375 42.3563 39.375 41.875V36.625C39.375 36.1438 38.9813 35.75 38.5 35.75H18.375ZM59.5 48.4375C46.4516 48.4375 35.875 59.0141 35.875 72.0625C35.875 85.1109 46.4516 95.6875 59.5 95.6875C72.5484 95.6875 83.125 85.1109 83.125 72.0625C83.125 59.0141 72.5484 48.4375 59.5 48.4375ZM71.2578 83.8203C68.1188 86.9594 63.9406 88.6875 59.5 88.6875C55.0594 88.6875 50.8812 86.9594 47.7422 83.8203C44.6031 80.6813 42.875 76.5031 42.875 72.0625C42.875 67.6219 44.6031 63.4438 47.7422 60.3047C50.8812 57.1656 55.0594 55.4375 59.5 55.4375C63.9406 55.4375 68.1188 57.1656 71.2578 60.3047C74.3969 63.4438 76.125 67.6219 76.125 72.0625C76.125 76.5031 74.3969 80.6813 71.2578 83.8203ZM69.2344 63.75H64.3891C64.1047 63.75 63.8422 63.8813 63.6781 64.1109L56.7328 73.7141L54.2062 70.225C54.1253 70.1123 54.0185 70.0207 53.8948 69.9579C53.7711 69.8951 53.6341 69.8629 53.4953 69.8641H48.6719C47.9609 69.8641 47.5453 70.6734 47.9609 71.2531L56.0328 82.4203C56.3828 82.9016 57.0938 82.9016 57.4438 82.4203L69.9344 65.1391C70.3609 64.5594 69.9453 63.75 69.2344 63.75ZM34.125 85.1875H8.75V8.1875H70V45.8125C70 46.2938 70.3938 46.6875 70.875 46.6875H77C77.4812 46.6875 77.875 46.2938 77.875 45.8125V3.8125C77.875 1.87656 76.3109 0.3125 74.375 0.3125H4.375C2.43906 0.3125 0.875 1.87656 0.875 3.8125V89.5625C0.875 91.4984 2.43906 93.0625 4.375 93.0625H34.125C34.6063 93.0625 35 92.6688 35 92.1875V86.0625C35 85.5813 34.6063 85.1875 34.125 85.1875Z"
    fill="#70B554"
  />
</svg>
