<svg width="120" height="120" viewBox="0 0 120 120" fill="none" xmlns="http://www.w3.org/2000/svg">
<path d="M0 18.75C0 17.7554 0.395088 16.8016 1.09835 16.0984C1.80161 15.3951 2.75544 15 3.75 15H15C15.8365 15.0002 16.6489 15.2801 17.308 15.7952C17.9671 16.3102 18.4351 17.0309 18.6375 17.8425L21.675 30H108.75C109.32 30.0002 109.882 30.1301 110.394 30.3799C110.906 30.6297 111.354 30.9929 111.704 31.4418C112.055 31.8907 112.299 32.4136 112.417 32.9708C112.535 33.528 112.525 34.1048 112.387 34.6575L101.137 79.6575C100.935 80.4691 100.467 81.1898 99.808 81.7048C99.1489 82.2199 98.3365 82.4998 97.5 82.5H30C29.1635 82.4998 28.3511 82.2199 27.692 81.7048C27.0329 81.1898 26.5649 80.4691 26.3625 79.6575L12.075 22.5H3.75C2.75544 22.5 1.80161 22.1049 1.09835 21.4016C0.395088 20.6984 0 19.7446 0 18.75ZM23.55 37.5L27.3 52.5H37.5V37.5H23.55ZM45 37.5V52.5H60V37.5H45ZM67.5 37.5V52.5H82.5V37.5H67.5ZM90 37.5V52.5H100.2L103.95 37.5H90ZM98.325 60H90V75H94.575L98.325 60ZM82.5 60H67.5V75H82.5V60ZM60 60H45V75H60V60ZM37.5 60H29.175L32.925 75H37.5V60ZM37.5 97.5C35.5109 97.5 33.6032 98.2902 32.1967 99.6967C30.7902 101.103 30 103.011 30 105C30 106.989 30.7902 108.897 32.1967 110.303C33.6032 111.71 35.5109 112.5 37.5 112.5C39.4891 112.5 41.3968 111.71 42.8033 110.303C44.2098 108.897 45 106.989 45 105C45 103.011 44.2098 101.103 42.8033 99.6967C41.3968 98.2902 39.4891 97.5 37.5 97.5ZM22.5 105C22.5 101.022 24.0804 97.2064 26.8934 94.3934C29.7064 91.5804 33.5218 90 37.5 90C41.4782 90 45.2936 91.5804 48.1066 94.3934C50.9196 97.2064 52.5 101.022 52.5 105C52.5 108.978 50.9196 112.794 48.1066 115.607C45.2936 118.42 41.4782 120 37.5 120C33.5218 120 29.7064 118.42 26.8934 115.607C24.0804 112.794 22.5 108.978 22.5 105ZM90 97.5C88.0109 97.5 86.1032 98.2902 84.6967 99.6967C83.2902 101.103 82.5 103.011 82.5 105C82.5 106.989 83.2902 108.897 84.6967 110.303C86.1032 111.71 88.0109 112.5 90 112.5C91.9891 112.5 93.8968 111.71 95.3033 110.303C96.7098 108.897 97.5 106.989 97.5 105C97.5 103.011 96.7098 101.103 95.3033 99.6967C93.8968 98.2902 91.9891 97.5 90 97.5ZM75 105C75 101.022 76.5804 97.2064 79.3934 94.3934C82.2064 91.5804 86.0218 90 90 90C93.9782 90 97.7936 91.5804 100.607 94.3934C103.42 97.2064 105 101.022 105 105C105 108.978 103.42 112.794 100.607 115.607C97.7936 118.42 93.9782 120 90 120C86.0218 120 82.2064 118.42 79.3934 115.607C76.5804 112.794 75 108.978 75 105Z" fill="#16B1FF"/>
</svg>
