<svg width="128" height="121" viewBox="0 0 128 121" fill="none" xmlns="http://www.w3.org/2000/svg">
<path d="M122.596 52.7788C127.336 52.7788 129.315 46.6512 125.465 43.8267L66.8834 0.949229C66.0468 0.33249 65.0367 0 63.9996 0C62.9625 0 61.9524 0.33249 61.1158 0.949229L2.5347 43.8267C-1.31549 46.6358 0.663293 52.7788 5.4185 52.7788H14.9136V110.504H3.86922C3.19429 110.504 2.64207 111.06 2.64207 111.739V119.765C2.64207 120.444 3.19429 121 3.86922 121H124.13C124.805 121 125.357 120.444 125.357 119.765V111.739C125.357 111.06 124.805 110.504 124.13 110.504H113.086V52.7788H122.596ZM63.9996 11.8307L105.585 42.2678H22.4145L63.9996 11.8307ZM25.9579 52.7788H43.905V110.504H25.9579V52.7788ZM54.9494 52.7788H72.8965V110.504H54.9494V52.7788ZM102.041 110.504H83.9408V52.7788H102.041V110.504Z" fill="#16B1FF"/>
</svg>
